<mxfile host="app.diagrams.net" modified="2023-11-22T09:35:01.849Z" agent="Mozilla/5.0 (Windows NT 6.1; Win64; x64) AppleWebKit/537.36 (KHTML, like Gecko) Chrome/109.0.0.0 Safari/537.36" etag="juIO7xkfowTuMiKHYg9J" version="22.1.3" type="device">
  <diagram name="Страница — 1" id="kGS5p52gltEQwVSdvfng">
    <mxGraphModel dx="1185" dy="658" grid="1" gridSize="10" guides="1" tooltips="1" connect="1" arrows="1" fold="1" page="1" pageScale="1" pageWidth="827" pageHeight="1169" math="0" shadow="0">
      <root>
        <mxCell id="0" />
        <mxCell id="1" parent="0" />
        <mxCell id="73d8M0AsHRJj5ya_0dzr-1" style="edgeStyle=orthogonalEdgeStyle;rounded=0;orthogonalLoop=1;jettySize=auto;html=1;exitX=0.5;exitY=1;exitDx=0;exitDy=0;entryX=0.5;entryY=0;entryDx=0;entryDy=0;" edge="1" parent="1" source="73d8M0AsHRJj5ya_0dzr-2" target="73d8M0AsHRJj5ya_0dzr-4">
          <mxGeometry relative="1" as="geometry" />
        </mxCell>
        <mxCell id="73d8M0AsHRJj5ya_0dzr-2" value="" style="ellipse;whiteSpace=wrap;html=1;aspect=fixed;fillColor=#000000;" vertex="1" parent="1">
          <mxGeometry x="390" y="190" width="20" height="20" as="geometry" />
        </mxCell>
        <mxCell id="73d8M0AsHRJj5ya_0dzr-9" style="edgeStyle=orthogonalEdgeStyle;rounded=0;orthogonalLoop=1;jettySize=auto;html=1;exitX=0.5;exitY=1;exitDx=0;exitDy=0;entryX=0.5;entryY=0;entryDx=0;entryDy=0;" edge="1" parent="1" source="73d8M0AsHRJj5ya_0dzr-4" target="73d8M0AsHRJj5ya_0dzr-7">
          <mxGeometry relative="1" as="geometry" />
        </mxCell>
        <mxCell id="73d8M0AsHRJj5ya_0dzr-4" value="&lt;font style=&quot;font-size: 14px;&quot; face=&quot;Times New Roman&quot;&gt;&lt;span style=&quot;&quot;&gt;EULER :=&amp;nbsp;&lt;/span&gt; 0.5772156649015328606&amp;nbsp;&lt;/font&gt;" style="rounded=1;whiteSpace=wrap;html=1;" vertex="1" parent="1">
          <mxGeometry x="285" y="230" width="230" height="30" as="geometry" />
        </mxCell>
        <mxCell id="73d8M0AsHRJj5ya_0dzr-18" style="edgeStyle=orthogonalEdgeStyle;rounded=0;orthogonalLoop=1;jettySize=auto;html=1;exitX=0;exitY=0.5;exitDx=0;exitDy=0;entryX=0.5;entryY=0;entryDx=0;entryDy=0;" edge="1" parent="1" source="73d8M0AsHRJj5ya_0dzr-5" target="73d8M0AsHRJj5ya_0dzr-14">
          <mxGeometry relative="1" as="geometry" />
        </mxCell>
        <mxCell id="73d8M0AsHRJj5ya_0dzr-19" value="" style="edgeStyle=orthogonalEdgeStyle;rounded=0;orthogonalLoop=1;jettySize=auto;html=1;" edge="1" parent="1" source="73d8M0AsHRJj5ya_0dzr-5" target="73d8M0AsHRJj5ya_0dzr-15">
          <mxGeometry relative="1" as="geometry" />
        </mxCell>
        <mxCell id="73d8M0AsHRJj5ya_0dzr-5" value="" style="rhombus;whiteSpace=wrap;html=1;" vertex="1" parent="1">
          <mxGeometry x="390" y="373" width="20" height="20" as="geometry" />
        </mxCell>
        <mxCell id="73d8M0AsHRJj5ya_0dzr-12" style="edgeStyle=orthogonalEdgeStyle;rounded=0;orthogonalLoop=1;jettySize=auto;html=1;exitX=0.5;exitY=1;exitDx=0;exitDy=0;" edge="1" parent="1" source="73d8M0AsHRJj5ya_0dzr-7" target="73d8M0AsHRJj5ya_0dzr-11">
          <mxGeometry relative="1" as="geometry" />
        </mxCell>
        <mxCell id="73d8M0AsHRJj5ya_0dzr-7" value="&lt;font face=&quot;Times New Roman&quot;&gt;&lt;span style=&quot;font-size: 16px;&quot;&gt;EPS := 1e-10&lt;/span&gt;&lt;/font&gt;" style="rounded=1;whiteSpace=wrap;html=1;" vertex="1" parent="1">
          <mxGeometry x="355" y="280" width="90" height="30" as="geometry" />
        </mxCell>
        <mxCell id="73d8M0AsHRJj5ya_0dzr-13" style="edgeStyle=orthogonalEdgeStyle;rounded=0;orthogonalLoop=1;jettySize=auto;html=1;exitX=0.5;exitY=1;exitDx=0;exitDy=0;entryX=0.5;entryY=0;entryDx=0;entryDy=0;" edge="1" parent="1" source="73d8M0AsHRJj5ya_0dzr-11" target="73d8M0AsHRJj5ya_0dzr-5">
          <mxGeometry relative="1" as="geometry" />
        </mxCell>
        <mxCell id="73d8M0AsHRJj5ya_0dzr-11" value="&lt;font style=&quot;font-size: 16px;&quot; face=&quot;Times New Roman&quot;&gt;Ввод x&lt;/font&gt;" style="rounded=1;whiteSpace=wrap;html=1;" vertex="1" parent="1">
          <mxGeometry x="360" y="327" width="80" height="30" as="geometry" />
        </mxCell>
        <mxCell id="73d8M0AsHRJj5ya_0dzr-42" style="edgeStyle=orthogonalEdgeStyle;rounded=0;orthogonalLoop=1;jettySize=auto;html=1;exitX=0.5;exitY=1;exitDx=0;exitDy=0;entryX=0.5;entryY=1;entryDx=0;entryDy=0;" edge="1" parent="1" source="73d8M0AsHRJj5ya_0dzr-14" target="73d8M0AsHRJj5ya_0dzr-30">
          <mxGeometry relative="1" as="geometry" />
        </mxCell>
        <mxCell id="73d8M0AsHRJj5ya_0dzr-14" value="&lt;font style=&quot;font-size: 14px;&quot; face=&quot;Times New Roman&quot;&gt;&lt;font style=&quot;font-size: 14px;&quot;&gt;Вывод &quot;&lt;/font&gt;Illegal value of x&lt;font style=&quot;font-size: 14px;&quot;&gt;&quot;&lt;/font&gt;&lt;/font&gt;" style="rounded=1;whiteSpace=wrap;html=1;" vertex="1" parent="1">
          <mxGeometry x="210" y="408" width="160" height="40" as="geometry" />
        </mxCell>
        <mxCell id="73d8M0AsHRJj5ya_0dzr-20" style="edgeStyle=orthogonalEdgeStyle;rounded=0;orthogonalLoop=1;jettySize=auto;html=1;exitX=0.5;exitY=1;exitDx=0;exitDy=0;entryX=0.5;entryY=0;entryDx=0;entryDy=0;" edge="1" parent="1" source="73d8M0AsHRJj5ya_0dzr-15" target="73d8M0AsHRJj5ya_0dzr-16">
          <mxGeometry relative="1" as="geometry" />
        </mxCell>
        <mxCell id="73d8M0AsHRJj5ya_0dzr-15" value="&lt;font face=&quot;Times New Roman&quot;&gt;&lt;span style=&quot;font-size: 16px;&quot;&gt;a := x&lt;/span&gt;&lt;/font&gt;" style="rounded=1;whiteSpace=wrap;html=1;" vertex="1" parent="1">
          <mxGeometry x="470" y="408" width="80" height="30" as="geometry" />
        </mxCell>
        <mxCell id="73d8M0AsHRJj5ya_0dzr-21" style="edgeStyle=orthogonalEdgeStyle;rounded=0;orthogonalLoop=1;jettySize=auto;html=1;exitX=0.5;exitY=1;exitDx=0;exitDy=0;entryX=0.5;entryY=0;entryDx=0;entryDy=0;" edge="1" parent="1" source="73d8M0AsHRJj5ya_0dzr-16" target="73d8M0AsHRJj5ya_0dzr-17">
          <mxGeometry relative="1" as="geometry" />
        </mxCell>
        <mxCell id="73d8M0AsHRJj5ya_0dzr-16" value="&lt;font face=&quot;Times New Roman&quot;&gt;&lt;span style=&quot;font-size: 16px;&quot;&gt;S := a&lt;/span&gt;&lt;/font&gt;" style="rounded=1;whiteSpace=wrap;html=1;" vertex="1" parent="1">
          <mxGeometry x="470" y="451" width="80" height="30" as="geometry" />
        </mxCell>
        <mxCell id="73d8M0AsHRJj5ya_0dzr-32" style="edgeStyle=orthogonalEdgeStyle;rounded=0;orthogonalLoop=1;jettySize=auto;html=1;exitX=0.5;exitY=1;exitDx=0;exitDy=0;entryX=0.5;entryY=0;entryDx=0;entryDy=0;" edge="1" parent="1" source="73d8M0AsHRJj5ya_0dzr-17" target="73d8M0AsHRJj5ya_0dzr-22">
          <mxGeometry relative="1" as="geometry" />
        </mxCell>
        <mxCell id="73d8M0AsHRJj5ya_0dzr-17" value="&lt;font face=&quot;Times New Roman&quot;&gt;&lt;span style=&quot;font-size: 16px;&quot;&gt;k := 1&lt;/span&gt;&lt;/font&gt;" style="rounded=1;whiteSpace=wrap;html=1;" vertex="1" parent="1">
          <mxGeometry x="470" y="496" width="80" height="30" as="geometry" />
        </mxCell>
        <mxCell id="73d8M0AsHRJj5ya_0dzr-43" style="edgeStyle=orthogonalEdgeStyle;rounded=0;orthogonalLoop=1;jettySize=auto;html=1;exitX=0;exitY=0.5;exitDx=0;exitDy=0;entryX=0.5;entryY=0;entryDx=0;entryDy=0;" edge="1" parent="1" source="73d8M0AsHRJj5ya_0dzr-22" target="73d8M0AsHRJj5ya_0dzr-30">
          <mxGeometry relative="1" as="geometry" />
        </mxCell>
        <mxCell id="73d8M0AsHRJj5ya_0dzr-22" value="" style="rhombus;whiteSpace=wrap;html=1;" vertex="1" parent="1">
          <mxGeometry x="500" y="540" width="20" height="20" as="geometry" />
        </mxCell>
        <mxCell id="73d8M0AsHRJj5ya_0dzr-34" style="edgeStyle=orthogonalEdgeStyle;rounded=0;orthogonalLoop=1;jettySize=auto;html=1;exitX=0.5;exitY=1;exitDx=0;exitDy=0;entryX=0.5;entryY=0;entryDx=0;entryDy=0;" edge="1" parent="1" source="73d8M0AsHRJj5ya_0dzr-23" target="73d8M0AsHRJj5ya_0dzr-24">
          <mxGeometry relative="1" as="geometry" />
        </mxCell>
        <mxCell id="73d8M0AsHRJj5ya_0dzr-23" value="&lt;font face=&quot;Times New Roman&quot;&gt;&lt;span style=&quot;font-size: 16px;&quot;&gt;a := a * (x * k / (k + 1) ** 2&lt;/span&gt;&lt;/font&gt;" style="rounded=1;whiteSpace=wrap;html=1;" vertex="1" parent="1">
          <mxGeometry x="415" y="585" width="190" height="30" as="geometry" />
        </mxCell>
        <mxCell id="73d8M0AsHRJj5ya_0dzr-35" style="edgeStyle=orthogonalEdgeStyle;rounded=0;orthogonalLoop=1;jettySize=auto;html=1;exitX=0.5;exitY=1;exitDx=0;exitDy=0;entryX=0.5;entryY=0;entryDx=0;entryDy=0;" edge="1" parent="1" source="73d8M0AsHRJj5ya_0dzr-24" target="73d8M0AsHRJj5ya_0dzr-25">
          <mxGeometry relative="1" as="geometry" />
        </mxCell>
        <mxCell id="73d8M0AsHRJj5ya_0dzr-24" value="&lt;font face=&quot;Times New Roman&quot;&gt;&lt;span style=&quot;font-size: 16px;&quot;&gt;S := S + a&lt;/span&gt;&lt;/font&gt;" style="rounded=1;whiteSpace=wrap;html=1;" vertex="1" parent="1">
          <mxGeometry x="470" y="630" width="80" height="30" as="geometry" />
        </mxCell>
        <mxCell id="73d8M0AsHRJj5ya_0dzr-36" style="edgeStyle=orthogonalEdgeStyle;rounded=0;orthogonalLoop=1;jettySize=auto;html=1;exitX=0.5;exitY=1;exitDx=0;exitDy=0;entryX=0.5;entryY=0;entryDx=0;entryDy=0;" edge="1" parent="1" source="73d8M0AsHRJj5ya_0dzr-25" target="73d8M0AsHRJj5ya_0dzr-28">
          <mxGeometry relative="1" as="geometry" />
        </mxCell>
        <mxCell id="73d8M0AsHRJj5ya_0dzr-25" value="&lt;font face=&quot;Times New Roman&quot;&gt;&lt;span style=&quot;font-size: 16px;&quot;&gt;k := k + 1&lt;/span&gt;&lt;/font&gt;" style="rounded=1;whiteSpace=wrap;html=1;" vertex="1" parent="1">
          <mxGeometry x="470" y="680" width="80" height="30" as="geometry" />
        </mxCell>
        <mxCell id="73d8M0AsHRJj5ya_0dzr-39" style="edgeStyle=orthogonalEdgeStyle;rounded=0;orthogonalLoop=1;jettySize=auto;html=1;exitX=1;exitY=0.5;exitDx=0;exitDy=0;entryX=1;entryY=0.5;entryDx=0;entryDy=0;" edge="1" parent="1" source="73d8M0AsHRJj5ya_0dzr-26" target="73d8M0AsHRJj5ya_0dzr-22">
          <mxGeometry relative="1" as="geometry">
            <Array as="points">
              <mxPoint x="630" y="800" />
              <mxPoint x="630" y="550" />
            </Array>
          </mxGeometry>
        </mxCell>
        <mxCell id="73d8M0AsHRJj5ya_0dzr-26" value="&lt;font style=&quot;font-size: 16px;&quot; face=&quot;Times New Roman&quot;&gt;Вывод Ei&lt;/font&gt;" style="rounded=1;whiteSpace=wrap;html=1;" vertex="1" parent="1">
          <mxGeometry x="460" y="780" width="100" height="40" as="geometry" />
        </mxCell>
        <mxCell id="73d8M0AsHRJj5ya_0dzr-37" style="edgeStyle=orthogonalEdgeStyle;rounded=0;orthogonalLoop=1;jettySize=auto;html=1;exitX=0.5;exitY=1;exitDx=0;exitDy=0;entryX=0.5;entryY=0;entryDx=0;entryDy=0;" edge="1" parent="1" source="73d8M0AsHRJj5ya_0dzr-28" target="73d8M0AsHRJj5ya_0dzr-26">
          <mxGeometry relative="1" as="geometry" />
        </mxCell>
        <mxCell id="73d8M0AsHRJj5ya_0dzr-28" value="&lt;font face=&quot;Times New Roman&quot;&gt;&lt;span style=&quot;font-size: 16px;&quot;&gt;Ei := EULER + ln(x) + S&lt;/span&gt;&lt;/font&gt;" style="rounded=1;whiteSpace=wrap;html=1;" vertex="1" parent="1">
          <mxGeometry x="420" y="730" width="180" height="30" as="geometry" />
        </mxCell>
        <mxCell id="73d8M0AsHRJj5ya_0dzr-30" value="" style="ellipse;shape=doubleEllipse;whiteSpace=wrap;html=1;aspect=fixed;fillColor=#000000;strokeColor=#ffffff;direction=south;" vertex="1" parent="1">
          <mxGeometry x="370" y="537.5" width="25" height="25" as="geometry" />
        </mxCell>
        <mxCell id="73d8M0AsHRJj5ya_0dzr-33" style="edgeStyle=orthogonalEdgeStyle;rounded=0;orthogonalLoop=1;jettySize=auto;html=1;exitX=0.5;exitY=1;exitDx=0;exitDy=0;entryX=0.5;entryY=0;entryDx=0;entryDy=0;" edge="1" parent="1" source="73d8M0AsHRJj5ya_0dzr-22" target="73d8M0AsHRJj5ya_0dzr-23">
          <mxGeometry relative="1" as="geometry" />
        </mxCell>
        <mxCell id="73d8M0AsHRJj5ya_0dzr-44" value="&lt;font style=&quot;font-size: 14px;&quot; face=&quot;Times New Roman&quot;&gt;[x = 0]&lt;/font&gt;" style="text;html=1;strokeColor=none;fillColor=none;align=center;verticalAlign=middle;whiteSpace=wrap;rounded=0;" vertex="1" parent="1">
          <mxGeometry x="310" y="359" width="60" height="30" as="geometry" />
        </mxCell>
        <mxCell id="73d8M0AsHRJj5ya_0dzr-45" value="&lt;font style=&quot;font-size: 14px;&quot; face=&quot;Times New Roman&quot;&gt;[else]&lt;/font&gt;" style="text;html=1;strokeColor=none;fillColor=none;align=center;verticalAlign=middle;whiteSpace=wrap;rounded=0;" vertex="1" parent="1">
          <mxGeometry x="430" y="357" width="60" height="30" as="geometry" />
        </mxCell>
        <mxCell id="73d8M0AsHRJj5ya_0dzr-46" value="&lt;font style=&quot;font-size: 14px;&quot; face=&quot;Times New Roman&quot;&gt;[else]&lt;/font&gt;" style="text;html=1;strokeColor=none;fillColor=none;align=center;verticalAlign=middle;whiteSpace=wrap;rounded=0;" vertex="1" parent="1">
          <mxGeometry x="420" y="526" width="60" height="30" as="geometry" />
        </mxCell>
        <mxCell id="73d8M0AsHRJj5ya_0dzr-47" value="&lt;font style=&quot;font-size: 14px;&quot; face=&quot;Times New Roman&quot;&gt;[a &amp;gt; EPS]&lt;/font&gt;" style="text;html=1;strokeColor=none;fillColor=none;align=center;verticalAlign=middle;whiteSpace=wrap;rounded=0;" vertex="1" parent="1">
          <mxGeometry x="507" y="555" width="73" height="30" as="geometry" />
        </mxCell>
      </root>
    </mxGraphModel>
  </diagram>
</mxfile>
